REM DIRINDEX 1\2\5,1\2\6,1\2\7,1\2\8,1\3\9,1\3\10,1\3\11,1\4\12,1\4\13,1\4\14,1\4\15,1\4\16
REM DIRNAME folder01,folder02,folder03,folder04,folder05,folder06,folder07,folder08,folder09,folder10,folder11,folder12,folder13,folder14,folder15,folder16
TITLE ""
FILE "1200_sec03_0665_0673.mp3" MP3
  TRACK 01 AUDIO
    TITLE "0:"
    INDEX 01 00:00:00
  TRACK 02 AUDIO
    TITLE "12:cjc034_06315"
    INDEX 01 00:00:19
  TRACK 03 AUDIO
    TITLE "0:"
    INDEX 01 00:01:42
  TRACK 04 AUDIO
    TITLE "13:cjc034_06316"
    INDEX 01 00:02:02
  TRACK 05 AUDIO
    TITLE "0:"
    INDEX 01 00:05:50
  TRACK 06 AUDIO
    TITLE "14:cjc034_06317"
    INDEX 01 00:06:10
  TRACK 07 AUDIO
    TITLE "0:"
    INDEX 01 00:07:31
  TRACK 08 AUDIO
    TITLE "15:cjc034_06318"
    INDEX 01 00:07:68
  TRACK 09 AUDIO
    TITLE "0:"
    INDEX 01 00:11:29
  TRACK 10 AUDIO
    TITLE "12:cjc034_06319"
    INDEX 01 00:12:67
  TRACK 11 AUDIO
    TITLE "0:"
    INDEX 01 00:14:25
  TRACK 12 AUDIO
    TITLE "13:cjc034_06320"
    INDEX 01 00:14:60
  TRACK 13 AUDIO
    TITLE "0:"
    INDEX 01 00:17:12
  TRACK 14 AUDIO
    TITLE "14:cjc034_06321"
    INDEX 01 00:17:47
  TRACK 15 AUDIO
    TITLE "0:"
    INDEX 01 00:19:05
  TRACK 16 AUDIO
    TITLE "15:cjc034_06322"
    INDEX 01 00:19:42
  TRACK 17 AUDIO
    TITLE "0:"
    INDEX 01 00:24:33
  TRACK 18 AUDIO
    TITLE "16:cjc034_06323"
    INDEX 01 00:25:64
  TRACK 19 AUDIO
    TITLE "0:"
    INDEX 01 00:29:38
  TRACK 20 AUDIO
    TITLE "12:cjc034_06324"
    INDEX 01 00:30:40
  TRACK 21 AUDIO
    TITLE "0:"
    INDEX 01 00:31:61
  TRACK 22 AUDIO
    TITLE "13:cjc034_06325"
    INDEX 01 00:32:21
  TRACK 23 AUDIO
    TITLE "0:"
    INDEX 01 00:34:69
  TRACK 24 AUDIO
    TITLE "14:cjc034_06326"
    INDEX 01 00:35:25
  TRACK 25 AUDIO
    TITLE "0:"
    INDEX 01 00:36:46
  TRACK 26 AUDIO
    TITLE "15:cjc034_06327"
    INDEX 01 00:37:05
  TRACK 27 AUDIO
    TITLE "0:"
    INDEX 01 00:41:28
  TRACK 28 AUDIO
    TITLE "12:cjc034_06328"
    INDEX 01 00:42:63
  TRACK 29 AUDIO
    TITLE "0:"
    INDEX 01 00:43:68
  TRACK 30 AUDIO
    TITLE "13:cjc034_06329"
    INDEX 01 00:44:28
  TRACK 31 AUDIO
    TITLE "0:"
    INDEX 01 00:47:27
  TRACK 32 AUDIO
    TITLE "14:cjc034_06330"
    INDEX 01 00:47:58
  TRACK 33 AUDIO
    TITLE "0:"
    INDEX 01 00:48:63
  TRACK 34 AUDIO
    TITLE "15:cjc034_06331"
    INDEX 01 00:49:21
  TRACK 35 AUDIO
    TITLE "0:"
    INDEX 01 00:53:09
  TRACK 36 AUDIO
    TITLE "12:cjc034_06332"
    INDEX 01 00:54:52
  TRACK 37 AUDIO
    TITLE "0:"
    INDEX 01 00:55:69
  TRACK 38 AUDIO
    TITLE "13:cjc034_06333"
    INDEX 01 00:56:29
  TRACK 39 AUDIO
    TITLE "0:"
    INDEX 01 00:58:46
  TRACK 40 AUDIO
    TITLE "14:cjc034_06334"
    INDEX 01 00:59:02
  TRACK 41 AUDIO
    TITLE "0:"
    INDEX 01 01:00:21
  TRACK 42 AUDIO
    TITLE "15:cjc034_06335"
    INDEX 01 01:00:53
  TRACK 43 AUDIO
    TITLE "0:"
    INDEX 01 01:04:54
  TRACK 44 AUDIO
    TITLE "12:cjc034_06336"
    INDEX 01 01:06:10
  TRACK 45 AUDIO
    TITLE "0:"
    INDEX 01 01:07:51
  TRACK 46 AUDIO
    TITLE "13:cjc034_06337"
    INDEX 01 01:08:09
  TRACK 47 AUDIO
    TITLE "0:"
    INDEX 01 01:09:28
  TRACK 48 AUDIO
    TITLE "14:cjc034_06338"
    INDEX 01 01:09:61
  TRACK 49 AUDIO
    TITLE "0:"
    INDEX 01 01:11:27
  TRACK 50 AUDIO
    TITLE "15:cjc034_06339"
    INDEX 01 01:11:58
  TRACK 51 AUDIO
    TITLE "0:"
    INDEX 01 01:15:54
  TRACK 52 AUDIO
    TITLE "12:cjc034_06340"
    INDEX 01 01:17:10
  TRACK 53 AUDIO
    TITLE "0:"
    INDEX 01 01:18:15
  TRACK 54 AUDIO
    TITLE "13:cjc034_06341"
    INDEX 01 01:18:45
  TRACK 55 AUDIO
    TITLE "0:"
    INDEX 01 01:19:52
  TRACK 56 AUDIO
    TITLE "14:cjc034_06342"
    INDEX 01 01:20:08
  TRACK 57 AUDIO
    TITLE "0:"
    INDEX 01 01:21:10
  TRACK 58 AUDIO
    TITLE "15:cjc034_06343"
    INDEX 01 01:21:45
  TRACK 59 AUDIO
    TITLE "0:"
    INDEX 01 01:25:35
  TRACK 60 AUDIO
    TITLE "12:cjc034_06344"
    INDEX 01 01:26:70
  TRACK 61 AUDIO
    TITLE "0:"
    INDEX 01 01:28:06
  TRACK 62 AUDIO
    TITLE "13:cjc034_06345"
    INDEX 01 01:28:43
  TRACK 63 AUDIO
    TITLE "0:"
    INDEX 01 01:29:64
  TRACK 64 AUDIO
    TITLE "14:cjc034_06346"
    INDEX 01 01:30:22
  TRACK 65 AUDIO
    TITLE "0:"
    INDEX 01 01:31:34
  TRACK 66 AUDIO
    TITLE "15:cjc034_06347"
    INDEX 01 01:31:69
  TRACK 67 AUDIO
    TITLE "0:"
    INDEX 01 01:36:03
  TRACK 68 AUDIO
    TITLE "12:cjc034_06348"
    INDEX 01 01:37:36
  TRACK 69 AUDIO
    TITLE "0:"
    INDEX 01 01:38:63
  TRACK 70 AUDIO
    TITLE "13:cjc034_06349"
    INDEX 01 01:39:21
  TRACK 71 AUDIO
    TITLE "0:"
    INDEX 01 01:41:65
  TRACK 72 AUDIO
    TITLE "14:cjc034_06350"
    INDEX 01 01:42:22
  TRACK 73 AUDIO
    TITLE "0:"
    INDEX 01 01:43:49
  TRACK 74 AUDIO
    TITLE "15:cjc034_06351"
    INDEX 01 01:44:07
  TRACK 75 AUDIO
    TITLE "0:"
    INDEX 01 01:47:66
